<svg width="646" height="538" viewBox="0 0 646 538" fill="none" xmlns="http://www.w3.org/2000/svg">
<g clip-path="url(#clip0_1870_2888)">
<path d="M356.097 422.882C356.147 421.148 353.438 420.933 353.366 422.717C353.24 426.697 352.278 430.604 350.542 434.184C350.355 433.98 350.122 433.823 349.862 433.727C349.603 433.631 349.324 433.598 349.05 433.632C344.271 434.835 340.013 437.55 336.909 441.373C334.931 443.834 332.346 445.738 329.408 446.898C326.47 448.057 323.279 448.433 320.147 447.988C314.026 447.085 307.788 447.441 301.815 449.033C296.055 451.211 291.15 455.861 284.899 456.484C277.924 457.216 271.163 453.65 264.123 454.326C257.695 455.508 251.573 457.964 246.115 461.55C236.052 466.945 233.99 465.208 223.538 463.127C205.976 459.566 202.204 472.958 185.877 470.58C179.816 469.75 172.889 468.406 168.041 473.023C163.198 467.623 164.274 452.834 164.345 447.788C164.343 446.947 162.99 446.601 162.837 447.488C159.99 461.108 161.82 477.649 176.719 483.133C189.874 488.006 211.697 484.711 226.363 482.515C253.336 478.53 302.049 468.319 326.46 458.097C341.135 451.989 355.592 440.174 356.097 422.882ZM268.15 389.427C264.415 393.131 261.654 397.703 260.113 402.736C265.168 404.568 270.304 406.778 275.515 408.62C277.86 400.23 282.962 392.881 289.999 387.755L289.944 387.752C286.172 386.357 282.614 384.439 279.373 382.055C275.184 383.753 271.371 386.257 268.15 389.427Z" fill="#191919"/>
<path d="M172.66 448.886C184.506 452.418 194.474 447.239 215.668 447.949C230.964 448.557 246.192 451.286 261.555 450.735C276.919 450.185 291.687 445.516 306.399 441.746C318.603 438.623 332.026 436.258 342.495 428.734C356.367 418.785 356.165 404.494 346.344 399.509C337.834 395.273 326.056 397.813 312.259 397.812C308.84 391.616 297.985 390.246 292.204 388.691C291.579 389.016 290.979 389.386 290.407 389.8C283.847 394.695 278.956 401.524 276.406 409.346C285.055 412.907 294.673 413.247 303.538 410.305C307.564 408.75 313.101 404.739 312.991 400.283C321.654 399.471 330.371 399.398 339.049 400.066C354.382 402.187 354.136 416.408 341.476 426.119C331.974 433.33 319.447 435.592 308.203 438.457C294.985 442.465 281.496 445.505 267.841 447.551C254.029 448.276 240.178 447.701 226.468 445.834C213.442 444.457 200.293 444.87 187.383 447.065C169.252 448.865 161.736 441.165 160.655 429.867C160.408 424.197 160.738 418.519 161.639 412.919C162.359 406.872 164.786 399.441 172.427 402.606C178.528 405.148 181.435 411.987 187.412 414.907C189.818 416.073 192.466 416.637 195.131 416.549C197.797 416.462 200.401 415.726 202.722 414.404C207.104 411.123 210.832 407.037 213.712 402.36C217.232 397.838 222.149 394.632 227.683 393.249C230.802 396.007 234.814 397.513 238.958 397.481C240.571 390.706 243.95 384.492 248.746 379.483C253.542 374.474 259.579 370.851 266.234 368.991C263.056 363.931 258.12 360.251 252.396 358.671C248.76 358.059 245.031 358.374 241.549 359.587C238.067 360.8 234.942 362.872 232.458 365.615C229.654 368.81 227.759 372.711 226.973 376.906C226.727 377.098 226.549 377.366 226.468 377.67C224.875 382.073 224.835 386.898 226.357 391.332C213.601 394.347 211.266 403.141 204.875 409.472C202.258 412.183 198.68 413.733 194.927 413.783C191.173 413.834 187.551 412.379 184.855 409.74C180.52 405.757 177.146 400.531 171.077 399.26C169.25 398.734 167.3 398.857 165.553 399.609C163.807 400.362 162.372 401.698 161.487 403.393C161.176 402.7 160.708 402.091 160.121 401.613C155.734 397.808 148.619 403.997 151.006 410.33C151.669 411.846 152.702 413.168 154.009 414.172C155.703 415.753 157.072 417.654 158.039 419.768C157.02 426.378 157.864 433.148 160.475 439.303C161.778 441.634 163.526 443.681 165.618 445.326C167.709 446.971 170.103 448.181 172.66 448.886ZM155.058 410.785C154.565 410.192 154.196 409.503 153.976 408.761C153.755 408.02 153.686 407.241 153.774 406.472C153.916 405.756 154.273 405.103 154.797 404.6C155.321 404.098 155.987 403.771 156.702 403.665C159.268 403.607 159.238 407.124 159.39 408.561C158.949 410.335 158.635 412.138 158.45 413.958C157.372 412.832 156.018 411.792 155.077 410.786L155.058 410.785Z" fill="#191919"/>
<path d="M241.896 398.013C247.065 398.946 252.16 400.262 257.137 401.949C258.638 396.751 261.389 392.006 265.148 388.13C268.383 384.792 272.196 382.072 276.402 380.103C273.595 377.674 271.087 374.917 268.932 371.89C262.497 373.402 256.591 376.626 251.834 381.222C247.077 385.819 243.644 391.619 241.896 398.013ZM610.086 395.023C609.778 393.257 607.103 393.836 607.425 395.598C608.106 399.521 607.943 403.544 606.948 407.396C606.699 407.246 606.422 407.149 606.135 407.114C605.847 407.078 605.556 407.103 605.279 407.188C600.745 409.442 597.061 413.107 594.776 417.636C593.303 420.401 591.14 422.734 588.497 424.405C585.854 426.077 582.822 427.03 579.698 427.172C573.59 427.51 567.622 429.123 562.176 431.909C556.707 435.426 552.685 441.307 546.069 442.86C539.345 444.458 532.298 442.552 525.633 444.89C519.756 447.469 514.419 451.139 509.904 455.707C501.95 462.507 498.705 461.513 489.098 461.467C475.875 461.434 470.897 468.975 464.162 473.152C460.776 475.241 456.896 476.39 452.918 476.482C446.85 476.799 439.99 477.087 436.203 482.486C436.1 482.428 436.056 482.319 435.953 482.262C429.865 475.768 429.072 466.691 427.498 458.414C427.452 458.236 427.346 458.078 427.196 457.971C427.046 457.863 426.864 457.812 426.68 457.826C426.497 457.841 426.325 457.92 426.194 458.049C426.064 458.179 425.983 458.351 425.967 458.535C425.929 472.782 431.321 488.629 447.246 490.813C460.842 492.695 480.765 485.361 494.968 480.141C520.153 470.931 565.702 451.26 587.883 436.054C601.203 426.786 613.128 412.301 610.086 395.023ZM493.801 393.561C499.058 393.438 504.318 393.703 509.539 394.354C509.99 388.823 511.801 383.492 514.808 378.84C517.295 375.089 520.385 371.78 523.953 369.046C520.712 367.218 517.697 365.014 514.969 362.478C508.993 365.286 503.878 369.65 500.156 375.115C496.433 380.581 494.239 386.95 493.801 393.561Z" fill="#191919"/>
<path d="M439.425 456.6C451.05 456.328 457.271 450.186 480.485 446.526C495.053 444.297 509.885 443.77 524.212 440.206C538.281 435.889 551.865 430.114 564.744 422.974C576.522 417.202 589.997 412.047 598.93 401.974C610.014 389.441 606.724 376.207 596.91 373.289C590.206 371.242 582.676 373.426 576.176 375.093C560.878 379.035 563.077 378.524 562.556 378.224C558.324 373.43 546.399 374.032 541.087 373.649C534.792 379.928 530.829 388.191 529.859 397.062C538.694 398.675 547.806 397.238 555.715 392.983C559.466 390.728 565.221 385.637 563.926 380.809C571.696 379.01 579.295 376.511 587.229 375.463C604.251 373.253 607.464 387.02 597.77 399.179C590.077 408.688 577.932 413.548 567.236 418.76C555.046 425.387 542.397 431.123 529.385 435.923C511.349 441.644 491.519 441.363 472.262 445.179C456.106 448.508 446.217 455.219 435.026 453.576C431.929 453.146 429.007 451.871 426.577 449.889C424.147 447.908 422.301 445.296 421.241 442.336C419.548 437.123 418.591 431.698 418.399 426.219C417.932 420.7 416.711 411.016 424.887 411.193C431.601 411.336 436.117 417.578 442.131 419.843C444.626 420.751 447.299 421.049 449.929 420.713C452.559 420.377 455.07 419.417 457.256 417.912C466.757 411.14 464.248 397.948 478.915 391.138C482.459 393.183 486.624 393.85 490.619 393.011L490.775 393.021C490.945 386.925 492.564 380.961 495.494 375.628C498.424 370.295 502.582 365.747 507.619 362.363C508.882 361.485 510.299 360.571 511.763 359.71C507.845 355.601 502.608 353.019 496.984 352.423C493.316 352.418 489.708 353.338 486.488 355.098C483.268 356.858 480.54 359.402 478.552 362.498C474.276 369.166 472.622 383.768 477.243 389.558C464.415 395.461 464.874 405.488 458.834 413.045C453.402 419.791 445.142 419.234 438.574 414.771C433.979 411.712 429.369 407.878 423.504 408.523C421.847 408.69 420.274 409.335 418.975 410.38C417.676 411.426 416.706 412.828 416.182 414.417C415.672 413.738 415.004 413.196 414.237 412.838C413.47 412.48 412.627 412.318 411.783 412.366C410.94 412.414 410.121 412.67 409.4 413.112C408.679 413.554 408.078 414.168 407.65 414.9C406.799 416.102 406.31 417.525 406.243 419.001C406.176 420.476 406.534 421.94 407.273 423.218C408.255 424.629 409.581 425.764 411.122 426.514C413.017 427.574 414.639 429.066 415.858 430.87C416.722 431.849 416.604 444.043 423.766 451.043C425.876 452.975 428.349 454.462 431.039 455.417C433.729 456.371 436.58 456.773 439.425 456.6ZM411.376 422.851C409.569 421.518 408.369 417.756 410.769 416.16C413.39 414.419 414.606 416.972 415.288 419.655C415.231 421.559 415.274 423.466 415.417 425.366C414.103 424.439 412.52 423.703 411.376 422.851Z" fill="#191919"/>
<path d="M511.897 394.677C517.215 395.463 522.671 396.652 528.147 397.407C528.749 388.671 532.249 380.396 538.087 373.905C534.1 373.3 530.217 372.127 526.557 370.423C522.463 373.106 519.022 376.677 516.485 380.874C513.949 385.071 512.381 389.787 511.897 394.677ZM226.012 61.955C224.551 61.7642 219.977 63.5957 219.623 61.5113C219.346 59.9091 216.952 60.4498 217.173 62.0486C217.351 62.8738 217.798 63.6163 218.443 64.1591C219.087 64.7019 219.893 65.014 220.733 65.0462C221.904 65.0557 223.069 64.8776 224.184 64.5187C224.986 64.3609 225.815 64.3943 226.604 64.616C227.393 64.8378 228.119 65.2418 228.725 65.7958C228.894 65.9074 229.095 65.96 229.297 65.9454C229.499 65.9308 229.69 65.8498 229.842 65.715C229.993 65.5802 230.096 65.399 230.134 65.1994C230.172 64.9999 230.144 64.7931 230.054 64.6109C229.643 63.8735 229.061 63.2466 228.357 62.784C227.654 62.3214 226.849 62.0369 226.012 61.955ZM236.149 76.7279C235.248 77.328 234.216 77.701 233.141 77.8154C232.845 77.8743 232.585 78.0489 232.417 78.3008C232.25 78.5528 232.189 78.8614 232.248 79.1589C232.308 79.4563 232.482 79.7182 232.733 79.8869C232.984 80.0556 233.292 80.1173 233.588 80.0584C235.824 79.6148 239.962 78.072 239.759 75.2041C239.272 73.3588 238.603 71.5665 237.762 69.8538C237.461 67.8255 237.014 65.8215 236.425 63.8575C236.353 63.7147 236.24 63.5968 236.1 63.5188C235.961 63.4407 235.802 63.4061 235.643 63.4194C235.484 63.4326 235.333 63.4931 235.209 63.5931C235.085 63.6931 234.993 63.8281 234.946 63.9809C234.548 67.5685 235.178 71.1978 236.761 74.4426C237.111 75.5718 237.299 75.8428 236.149 76.7279ZM223.061 78.3669C222.95 78.1654 222.777 78.0045 222.569 77.9074C222.361 77.8103 222.128 77.782 221.903 77.8266C221.678 77.8712 221.473 77.9864 221.318 78.1556C221.163 78.3247 221.065 78.5391 221.039 78.7679C220.361 83.2187 217.494 92.7657 223.356 95.0732C228.771 97.2007 232.719 89.6154 233.743 85.5658C233.774 85.1546 233.659 84.7454 233.418 84.4109C233.177 84.0763 232.826 83.838 232.428 83.7382C230.556 83.6528 228.73 83.1211 227.101 82.1871C225.473 81.2531 224.088 79.9436 223.061 78.3669ZM231.496 85.3227C230.713 87.8716 229.253 90.1565 227.272 91.9316C226.873 92.2103 226.414 92.3911 225.933 92.4595C225.452 92.5279 224.961 92.4821 224.499 92.3256C224.038 92.1692 223.62 91.9065 223.278 91.5587C222.935 91.2108 222.679 90.7874 222.528 90.3224C222.108 87.3538 222.248 84.3335 222.939 81.419C224.033 82.6124 225.354 83.5731 226.824 84.2437C228.294 84.9144 229.883 85.2813 231.496 85.3227ZM354.69 160.165C353.021 163.832 352.189 167.829 352.255 171.864C352.321 175.899 353.283 179.87 355.071 183.487C355.177 183.676 355.345 183.821 355.546 183.899C355.747 183.976 355.969 183.98 356.173 183.91C356.376 183.841 356.549 183.702 356.661 183.517C356.773 183.333 356.817 183.114 356.785 182.9C355.577 175.007 353.221 173.612 356.542 160.861C356.633 160.615 356.623 160.342 356.514 160.102C356.405 159.863 356.206 159.676 355.961 159.584C355.715 159.491 355.443 159.501 355.205 159.61C354.967 159.719 354.781 159.918 354.69 160.165ZM217.167 390.936C205.441 388.273 188.228 390.528 176.574 393.543C175.406 342.132 176.519 289.802 191.705 240.742C193.645 234.523 196.05 228.383 197.836 222.108C198.101 221.118 196.68 220.244 196.15 221.264C187.734 237.506 181.133 268.058 178.283 286.21C173.357 322.303 171.889 358.794 173.899 395.184C173.959 395.98 174.646 396.865 175.552 396.605C194.547 391.009 206.465 393.059 216.725 393.135C217.989 393.151 218.515 391.241 217.167 390.936ZM122.742 315.208C118.852 313.437 117.16 309.904 114.459 306.824C114.261 306.605 113.99 306.464 113.698 306.427C113.405 306.391 113.109 306.461 112.864 306.625C112.619 306.79 112.441 307.037 112.363 307.323C112.284 307.608 112.311 307.912 112.437 308.18C113.443 310.604 114.966 312.777 116.898 314.546C118.831 316.316 121.126 317.637 123.621 318.418C125.522 319.007 127.558 318.977 129.438 318.331C131.318 317.686 132.945 316.459 134.085 314.826C140.29 317.928 146.662 320.678 153.172 323.064C155.795 324.071 159.19 325.386 161.484 322.989C161.86 322.574 162.146 322.085 162.323 321.553C162.501 321.02 162.566 320.457 162.515 319.897C162.463 319.338 162.297 318.795 162.025 318.303C161.754 317.812 161.384 317.382 160.939 317.041C156.317 312.389 152.258 312.652 132.281 291.529C132.219 291.459 132.145 291.403 132.061 291.362C131.978 291.322 131.887 291.298 131.795 291.293C131.702 291.287 131.61 291.3 131.522 291.331C131.435 291.361 131.354 291.409 131.285 291.471C131.216 291.532 131.16 291.607 131.12 291.691C131.08 291.775 131.056 291.866 131.051 291.959C131.046 292.052 131.059 292.145 131.09 292.233C131.12 292.32 131.168 292.401 131.23 292.471C137.974 301.565 146.072 309.562 155.238 316.18C155.644 316.497 157.128 317.329 158.226 318.132C158.41 318.267 158.563 318.438 158.678 318.634C158.793 318.831 158.866 319.049 158.893 319.275C158.92 319.501 158.901 319.73 158.836 319.948C158.771 320.166 158.662 320.368 158.516 320.542C157.031 322.264 155.201 321.036 153.444 320.457C130.651 311.808 129.669 308.624 122.851 303.857C121.839 303.165 120.814 304.526 121.501 305.416C124.445 308.949 128.068 311.849 132.152 313.944C130.876 315.048 129.307 315.756 127.637 315.98C125.966 316.205 124.265 315.936 122.742 315.208Z" fill="#191919"/>
<path d="M281.038 198.773C277.355 170.568 264.099 163.52 237.032 165.031C206.877 166.703 177.631 179.668 153.102 198.271C150.223 198.199 147.345 198.411 144.509 198.906C128.461 201.318 107.993 207.838 96.4728 219.218C95.1423 214.949 93.7563 210.737 92.3148 206.58C104.676 196.292 108.456 198.027 113.657 194.055C113.798 193.924 113.898 193.755 113.945 193.568C113.992 193.381 113.985 193.185 113.923 193.002C113.861 192.819 113.748 192.658 113.598 192.539C113.447 192.419 113.265 192.346 113.075 192.328C108.77 192.999 104.679 194.658 101.117 197.177C97.6638 199.142 94.4121 201.445 91.4093 204.053C88.1132 194.692 84.495 185.472 80.5549 176.393C79.8526 174.818 77.5242 176.051 78.1748 177.643C88.7327 201.946 96.8991 227.229 102.557 253.129C103.25 255.326 103.718 257.588 103.955 259.88C103.954 263.485 100.525 264.601 98.0078 266.297C91.0723 271.071 84.8581 276.827 79.5567 283.388C64.1381 264.073 45.6664 236.537 36.5896 213.472C31.0216 200.588 29.3075 186.355 31.6575 172.519C37.7528 143.927 67.7717 132.436 94.6315 117.807C94.8522 117.678 95.0158 117.47 95.0887 117.224C95.1617 116.978 95.1384 116.713 95.0238 116.484C94.9092 116.254 94.7118 116.077 94.4721 115.989C94.2324 115.901 93.9685 115.909 93.7344 116.01C79.8665 121.719 66.6236 128.854 54.2162 137.303C43.2128 144.015 34.7805 154.264 30.2776 166.4C21.2569 194.107 35.8619 222.427 49.7071 245.711C58.072 259.611 67.3441 272.937 77.4622 285.602C80.5124 288.902 82.8577 292.797 84.3525 297.045C87.6044 304.624 92.5344 319.943 100.607 322.868C101.569 323.257 102.612 323.4 103.642 323.286C104.672 323.172 105.657 322.803 106.511 322.213C107.459 321.38 108.19 320.325 108.641 319.142C110.514 320.682 112.848 321.54 115.264 321.577C117.68 321.614 120.035 320.828 121.948 319.346C122.108 319.205 122.211 319.01 122.238 318.798C122.266 318.586 122.215 318.371 122.097 318.193C121.978 318.015 121.8 317.887 121.594 317.832C121.389 317.776 121.171 317.798 120.98 317.893C119.342 318.727 117.505 319.085 115.675 318.928C113.845 318.77 112.093 318.102 110.616 316.999C107.916 314.895 105.561 312.377 103.638 309.537C102.958 308.53 101.762 310.055 102.085 310.925C103.149 313.602 104.874 315.963 107.096 317.784C107.293 317.954 107.032 318.245 106.795 318.593C103.436 323.578 97.9528 317.791 95.7651 314.695C90.1729 306.806 87.7728 294.651 81.424 285.485C84.5997 281.373 88.166 277.583 92.0727 274.169C96.2229 270.57 104.101 265.715 104.424 265.163C111.521 275.35 132.012 269.314 138.253 280.402C139.42 282.512 139.955 284.917 139.794 287.324C139.653 289.75 138.28 291.627 137.989 293.937C137.98 294.116 138.018 294.294 138.098 294.454C138.178 294.614 138.298 294.751 138.447 294.85C138.595 294.949 138.766 295.008 138.944 295.021C139.121 295.034 139.299 295 139.459 294.923C142.837 292.856 143.144 287.105 142.423 283.619C141.969 281.372 141.011 279.259 139.623 277.44C138.234 275.621 136.452 274.146 134.412 273.125C129.991 271.159 125.283 269.932 120.473 269.492C115.071 269.207 109.942 266.999 106.002 263.261C106.791 260.871 106.779 258.286 105.968 255.9C103.541 244.267 100.594 232.749 97.1364 221.381C101.134 218.655 104.933 215.713 109.142 213.32C121.82 206.54 135.673 202.266 149.955 200.728C135.779 211.934 123.214 225.061 112.615 239.737C111.989 240.596 113.288 241.739 114.023 240.933C128.387 223.646 144.732 208.131 162.719 194.711C181.408 181.425 202.858 172.591 225.451 168.876C236.77 166.502 248.484 166.78 259.689 169.686C271.034 173.553 275.736 184.054 277.668 195.131C282.152 220.285 276.213 246.498 270.017 270.79C262.76 297.913 253.696 324.511 242.886 350.401C242.276 351.846 244.496 352.561 245.149 351.174C256.229 326.896 265.038 301.627 271.462 275.696C278.054 250.949 284.416 224.608 281.038 198.773ZM465.338 388.418C455.01 391.131 445.252 395.685 436.526 401.865C407.376 368.578 385.067 329.811 370.891 287.809C370.306 286.129 367.594 286.652 368.177 288.383C382.597 331.251 405.367 370.807 435.15 404.731C435.357 404.975 435.64 405.139 435.953 405.197C436.266 405.255 436.588 405.203 436.867 405.049C446.05 399.175 455.74 394.146 465.822 390.022C466.002 389.934 466.144 389.784 466.224 389.599C466.304 389.415 466.316 389.207 466.258 389.014C466.2 388.821 466.075 388.655 465.907 388.546C465.738 388.437 465.537 388.391 465.338 388.418ZM369.95 275.957C347.466 284.389 324.168 290.448 300.432 294.035C285.22 296.27 281.91 295.651 277.308 297.342C277.173 297.414 277.062 297.525 276.989 297.66C276.916 297.795 276.885 297.95 276.898 298.103C276.912 298.257 276.971 298.403 277.066 298.523C277.162 298.644 277.291 298.733 277.437 298.78C281.089 299.274 284.794 299.212 288.427 298.598C312.707 296.128 336.621 290.867 359.702 282.916C363.556 281.785 367.316 280.349 370.945 278.623C371.233 278.45 371.452 278.18 371.562 277.86C371.673 277.541 371.669 277.192 371.551 276.875C371.432 276.558 371.207 276.292 370.915 276.125C370.623 275.957 370.281 275.897 369.95 275.957Z" fill="#191919"/>
<path d="M164.224 329.588C157.395 329.926 154.146 333.667 138.406 332.713C129.468 331.881 120.73 329.51 112.551 325.699C112.331 325.634 112.096 325.651 111.887 325.748C111.678 325.845 111.508 326.016 111.408 326.229C111.309 326.443 111.285 326.685 111.341 326.915C111.397 327.145 111.53 327.346 111.716 327.484C126.05 338.766 157.01 337.41 164.943 331.624C165.095 331.461 165.2 331.257 165.245 331.036C165.291 330.814 165.276 330.584 165.201 330.371C165.126 330.159 164.994 329.973 164.821 329.834C164.649 329.695 164.442 329.61 164.224 329.588Z" fill="#191919"/>
<path d="M238.252 58.675C238.707 58.7027 239.161 58.594 239.554 58.3628C239.948 58.1316 240.264 57.7881 240.463 57.376C240.662 56.9638 240.734 56.5013 240.672 56.0471C240.609 55.5929 240.413 55.1673 240.11 54.8242C239.807 54.481 239.409 54.2358 238.967 54.1194C238.526 54.0029 238.06 54.0206 237.629 54.1702C237.198 54.3197 236.821 54.5944 236.546 54.9596C236.27 55.3247 236.109 55.7638 236.083 56.2214C236.054 56.8333 236.265 57.4324 236.671 57.8909C237.076 58.3494 237.644 58.6308 238.252 58.675ZM222.673 415.863C224.69 425.798 238.663 429.902 247.046 431.632C252.336 432.837 257.786 433.149 263.174 432.556C266.996 432.101 275.182 430.852 276.688 426.657C276.764 426.426 276.787 426.18 276.754 425.939C276.721 425.697 276.633 425.466 276.498 425.264C276.362 425.062 276.182 424.893 275.972 424.771C275.761 424.649 275.526 424.577 275.284 424.561C273.249 424.173 271.588 425.553 269.756 426.292C258.217 429.692 245.821 428.636 234.999 423.331C230.972 421.277 227.369 418.472 224.383 415.066C224.248 414.893 224.059 414.771 223.846 414.72C223.634 414.668 223.41 414.69 223.212 414.783C223.014 414.875 222.853 415.032 222.755 415.228C222.657 415.424 222.628 415.648 222.673 415.863ZM475.396 420.256C480.239 429.443 495.115 429.074 503.802 428.278C509.055 427.867 514.203 426.589 519.038 424.494C522.392 422.952 530.085 419.291 530.125 415.007C530.133 414.765 530.087 414.524 529.99 414.302C529.893 414.08 529.748 413.883 529.565 413.725C529.382 413.566 529.166 413.451 528.933 413.388C528.7 413.325 528.456 413.315 528.219 413.359C526.26 413.505 525.105 415.232 523.613 416.413C515.061 423.324 501.369 425.279 490.51 423.979C485.629 423.295 480.939 421.604 476.735 419.014C475.968 418.6 474.869 419.379 475.396 420.256Z" fill="#EF233C"/>
<path d="M259.942 28.3404C259.337 25.3895 257.931 22.6621 255.879 20.4596C253.828 18.2571 251.21 16.6652 248.317 15.8597C246.439 15.5881 244.876 16.179 243.076 15.4349C241.42 14.5271 239.845 13.4779 238.367 12.2991C230.522 7.42044 218.416 6.63431 206.056 14.044C191.387 22.8844 182.227 38.2595 168.829 48.748C139.752 71.542 98.3319 79.2676 78.7677 103.367C78.635 103.568 78.5502 103.797 78.5199 104.037C78.4895 104.276 78.5144 104.52 78.5926 104.748C78.6708 104.977 78.8003 105.185 78.971 105.355C79.1417 105.526 79.349 105.655 79.5771 105.733C93.279 109.1 102.312 121.21 107.157 133.863C113.139 149.518 113.511 166.723 118.263 182.73C118.32 182.956 118.427 183.167 118.575 183.347C118.724 183.527 118.91 183.671 119.121 183.77C119.332 183.869 119.562 183.92 119.795 183.918C120.027 183.917 120.257 183.864 120.466 183.762C159.146 167.154 190.966 138.864 197.795 97.3743C199.99 84.0693 200.194 68.7898 210.15 58.6252C219.268 49.3041 232.806 46.433 242.412 37.7763C244.769 43.3881 248.448 48.3442 253.134 52.2179C252.684 56.3101 252.238 60.398 251.685 64.433C250.01 64.3312 244.95 60.4095 240.898 65.3627C240.446 65.9144 241.236 66.7734 241.834 66.4204C246.559 63.7185 247.779 66.1605 251.335 66.8908C250.877 70.2177 250.316 73.5294 249.655 76.8211C248.196 83.8085 246.266 91.6663 239.867 95.768C236.946 97.4799 233.669 98.4921 230.291 98.7258C226.913 98.9595 223.525 98.4084 220.391 97.1153C212.975 94.2925 208.456 88.6844 202.98 83.3333C202.03 82.4323 200.131 83.48 200.949 84.7438C203.82 89.1407 207.577 92.8869 211.977 95.7408C216.377 98.5948 221.322 100.493 226.493 101.314C226.137 102.628 225.936 103.979 225.894 105.341C225.734 106.228 225.751 107.139 225.943 108.021C226.135 108.902 226.499 109.738 227.014 110.479C227.136 110.611 227.291 110.71 227.462 110.765C227.634 110.82 227.817 110.831 227.993 110.795C228.169 110.759 228.334 110.678 228.47 110.561C228.606 110.443 228.71 110.292 228.771 110.122C229.115 108.61 229.116 107.039 228.775 105.525C228.754 104.134 228.986 102.846 229.065 101.479C232.763 101.563 236.418 100.694 239.682 98.9541C242.829 96.9624 245.507 94.3102 247.534 91.1794C249.56 88.0487 250.887 84.5134 251.422 80.8164C253.653 71.925 254.804 62.7931 254.849 53.6195C254.949 53.7322 255.102 53.7925 255.202 53.9051C255.395 54.0275 255.613 54.1052 255.839 54.1326C256.066 54.1599 256.296 54.1362 256.512 54.0633C256.728 53.9903 256.925 53.8698 257.089 53.7107C257.253 53.5515 257.379 53.3576 257.458 53.1432C261.202 45.4422 262.082 36.6479 259.942 28.3404ZM225.858 16.2382C222.281 16.5928 218.766 17.4088 215.399 18.6661C211.931 20.4063 210.224 23.4723 207.256 25.6692C206.486 26.2017 205.091 25.8019 205.261 24.7047C206.377 17.2702 219.364 11.1451 225.974 14.2387C226.184 14.3162 226.365 14.4597 226.488 14.6479C226.611 14.8361 226.67 15.059 226.657 15.2835C226.644 15.508 226.56 15.7222 226.415 15.8942C226.271 16.0661 226.076 16.1868 225.858 16.2382ZM352.355 187.928C351.933 187.953 351.459 187.924 351.037 187.954C331.187 188.649 304.895 197.696 286.732 205.699C285.785 206.105 286.344 207.839 287.367 207.48C307.209 201.029 332.975 190.324 353.85 190.975C353.319 189.976 352.82 188.959 352.355 187.928ZM477.205 360.782C473.417 346.479 469.128 332.201 464.44 318.135C463.574 318.655 462.611 318.992 461.611 319.126C466.343 333.088 470.454 347.226 474.365 361.402C474.855 363.23 477.689 362.628 477.205 360.782ZM456.735 290.948C456.661 290.812 456.546 290.703 456.406 290.638C456.266 290.574 456.109 290.556 455.958 290.589C455.808 290.622 455.672 290.703 455.572 290.82C455.471 290.937 455.412 291.084 455.402 291.238C455.303 294.767 456.367 298.479 456.622 302.03C457.181 311.181 456.454 320.362 454.462 329.304C454.276 331.115 453.702 332.863 452.778 334.429C449.878 337.682 449.165 331.429 448.641 326.786C448.373 316.01 447.058 305.283 444.713 294.759C444.651 294.554 444.514 294.38 444.329 294.271C444.145 294.163 443.927 294.128 443.718 294.174C443.51 294.22 443.326 294.343 443.204 294.519C443.083 294.694 443.032 294.91 443.062 295.122C443.362 297.416 443.718 299.717 443.973 302.008C434.302 302.718 431.273 294.749 432.908 285.053C434.113 277.892 436.997 270.778 434.154 263.585C433.829 262.824 432.593 263.277 432.74 264.079C435.132 273.626 429.364 282.46 430.273 292.019C430.464 295.598 431.999 298.975 434.569 301.469C435.86 302.647 437.402 303.511 439.078 303.996C440.753 304.481 442.516 304.574 444.23 304.267C445.009 310.509 445.72 316.711 446.048 323.079C446.227 326.362 446.084 339.713 452.369 337.508C455.535 336.431 455.912 332.163 456.418 329.413C458.243 320.729 458.866 311.83 458.268 302.969C458.433 298.905 457.915 294.842 456.735 290.948Z" fill="#191919"/>
<path d="M465.211 288.456C465.088 288.335 464.935 288.25 464.767 288.212C464.6 288.174 464.425 288.183 464.263 288.24C464.101 288.296 463.958 288.397 463.849 288.531C463.741 288.665 463.672 288.827 463.651 288.999C463.85 291.273 464.284 293.521 464.947 295.706C465.37 298.24 465.555 300.808 465.499 303.377C465.556 305.792 464.846 308.161 463.473 310.138C462.099 312.115 460.134 313.597 457.864 314.368C457.716 314.45 457.599 314.576 457.527 314.729C457.455 314.882 457.433 315.055 457.465 315.221C457.496 315.388 457.579 315.54 457.701 315.657C457.824 315.773 457.979 315.848 458.146 315.87C460.493 315.608 462.69 314.578 464.4 312.939C466.11 311.3 467.241 309.141 467.619 306.792C468.128 303.58 468.141 300.307 467.656 297.089C467.618 294.045 466.774 291.064 465.211 288.456ZM473.113 284.64C473.007 284.517 472.867 284.429 472.711 284.387C472.555 284.345 472.391 284.351 472.238 284.405C472.086 284.458 471.953 284.556 471.857 284.686C471.761 284.817 471.706 284.973 471.699 285.136C471.43 287.447 473.411 290.169 474.205 296.375C474.752 300.546 474.286 307.62 468.931 308.305C468.084 308.412 468.219 309.747 469.056 309.797C473.826 310.143 475.981 304.754 476.368 300.802C476.574 297.96 476.349 295.103 475.701 292.328C475.562 289.574 474.666 286.912 473.113 284.64Z" fill="#191919"/>
<path d="M474.352 268.586C468.519 260.684 459.406 255.977 454.367 247.327C453.945 246.62 452.591 246.957 452.912 247.819C455.901 256.34 464.34 261.001 470.142 267.441C473.552 271.27 476.046 275.816 477.435 280.736C478.823 285.656 479.07 290.822 478.157 295.843C477.909 297.403 480.331 297.495 480.627 295.993C481.513 291.247 481.413 286.368 480.334 281.655C479.255 276.942 477.219 272.494 474.352 268.586Z" fill="#191919"/>
<path d="M456.077 245.162C439.406 208.21 411.279 164.928 382.339 139.962C357.989 119.183 328.543 105.34 297.078 99.8807C253.128 91.3451 249.067 106.82 229.185 112.682C224.224 114.145 218.954 114.209 213.954 112.866C211.526 112.477 209.2 111.603 207.113 110.296C205.027 108.988 203.221 107.274 201.805 105.254C201.653 104.986 201.404 104.787 201.11 104.698C200.816 104.609 200.499 104.638 200.226 104.779C199.953 104.919 199.745 105.16 199.645 105.451C199.545 105.743 199.561 106.062 199.69 106.342C202.786 112.88 211.172 115.556 217.803 116.381C234.351 118.431 246.73 104.719 261.073 101.371C277.173 97.6092 299.494 102.617 315.26 106.982C335.562 112.689 354.654 122.096 371.582 134.733C404.722 159.489 435.517 206.415 453.006 244.874C447.105 247.176 441.864 250.907 437.751 255.737C437.651 255.86 437.571 255.998 437.514 256.145C435.726 257.893 433.99 259.686 432.305 261.487C411.358 244.036 391.624 225.166 373.242 205.01C367.764 198.393 362.764 191.391 358.281 184.059C357.892 183.506 356.864 184.024 357.085 184.673C363.771 204.843 415.52 250.372 431.851 264.054C432.056 264.203 432.307 264.277 432.559 264.263C432.812 264.25 433.053 264.15 433.242 263.981C435.048 261.918 436.947 260.028 438.853 258.079C438.994 257.976 439.123 257.86 439.239 257.731C439.297 257.683 439.354 257.58 439.412 257.532C443.041 253.309 447.619 250.016 452.769 247.923C452.768 247.936 452.773 247.95 452.781 247.96C452.79 247.97 452.803 247.976 452.816 247.977L455.888 246.738C456.048 246.513 456.149 246.25 456.182 245.975C456.215 245.7 456.178 245.42 456.077 245.162Z" fill="#191919"/>
<path d="M534.704 339.2C532.966 330.564 528.539 313.674 526.26 305.217C525.557 301.515 524.407 297.911 522.833 294.484C522.416 293.72 521.075 293.916 521.127 294.842C521.184 298.157 521.896 300.371 526.368 316.946C528.397 324.541 530.431 332.137 532.902 339.603C532.957 339.842 533.103 340.05 533.31 340.181C533.518 340.313 533.768 340.356 534.007 340.303C534.246 340.249 534.454 340.103 534.584 339.896C534.715 339.689 534.758 339.439 534.704 339.2ZM569.654 339.044C573.265 328.691 575.946 318.034 577.665 307.201C578.551 303.717 578.866 300.111 578.6 296.524C578.492 295.672 577.328 295.763 577.081 296.432C575.234 300.804 575.913 308.586 567.851 338.445C567.8 338.675 567.837 338.917 567.954 339.123C568.071 339.328 568.26 339.484 568.484 339.558C568.709 339.633 568.953 339.621 569.169 339.526C569.385 339.431 569.558 339.259 569.654 339.044ZM603.238 350.729C614.337 341.638 624.76 331.751 634.425 321.147C635.215 320.197 633.711 318.896 632.822 319.734C627.646 324.634 622.764 329.81 617.687 334.763C612.611 339.715 607.383 344.557 602.199 349.526C602.073 349.671 602.003 349.857 602.003 350.05C602.003 350.243 602.073 350.429 602.199 350.576C602.325 350.722 602.499 350.818 602.69 350.846C602.881 350.874 603.075 350.833 603.238 350.729ZM320.345 377.609C316.218 368.122 309.303 354.083 306.29 347.757C304.96 344.488 303.284 341.37 301.288 338.457C301.161 338.321 300.992 338.23 300.809 338.198C300.625 338.165 300.436 338.194 300.27 338.279C300.104 338.364 299.971 338.501 299.89 338.668C299.809 338.836 299.786 339.026 299.822 339.209C300.853 342.577 302.254 345.822 303.998 348.884C305.596 352.14 315.234 371.933 318.647 378.453C318.759 378.679 318.957 378.85 319.195 378.931C319.434 379.011 319.695 378.993 319.92 378.881C320.145 378.77 320.316 378.573 320.396 378.334C320.476 378.096 320.457 377.835 320.345 377.609ZM341.939 377.29C344.265 367.229 345.886 355.541 347.383 345.203C348.117 341.732 348.411 338.181 348.26 334.634C348.153 333.704 346.838 333.758 346.53 334.529C345.589 337.805 345.039 341.182 344.892 344.59C344.42 348.191 341.476 369.853 340.581 377.064C340.38 377.828 341.748 378.123 341.939 377.29ZM363.195 388.209C367.561 383.897 371.605 379.302 375.664 374.704C379.908 370.608 383.778 366.141 387.228 361.356C387.328 361.172 387.363 360.96 387.327 360.753C387.291 360.546 387.185 360.358 387.027 360.219C386.869 360.08 386.669 360 386.46 359.99C386.25 359.98 386.044 360.042 385.874 360.165C383.567 362.175 381.448 364.389 379.542 366.783C373.866 373.218 367.481 380.183 361.894 387.077C361.324 387.827 362.534 388.861 363.195 388.209Z" fill="#EF233C"/>
</g>
<defs>
<clipPath id="clip0_1870_2888">
<rect width="646" height="538" fill="white"/>
</clipPath>
</defs>
</svg>
